<?xml version="1.0" encoding="utf-8"?>
<svg width="512px" height="512px" viewBox="0 0 512 512" version="1.1" xmlns:xlink="http://www.w3.org/1999/xlink" xmlns="http://www.w3.org/2000/svg">
  <g id="Group">
    <path d="M341.111 14.0183L341.111 128.574L316.536 171.223L186.878 171.223C178.046 171.223 170.889 178.395 170.889 187.244L170.889 340.777L327.12 340.777C334.848 340.777 341.111 334.502 341.111 326.759L341.111 190.041L352.532 170.222L496.01 170.222C504.842 170.222 512 177.393 512 186.243L512 495.979C512 504.828 504.842 512 496.01 512L186.878 512C178.046 512 170.889 504.828 170.889 495.979L170.889 341.778L13.9909 341.778C6.26289 341.778 0 335.503 0 327.76L0 14.0183C0 6.27514 6.26289 0 13.9909 0L327.12 0C334.848 0 341.111 6.27514 341.111 14.0183L341.111 14.0183Z" id="Vector-2" fill="#000000" fill-rule="evenodd" stroke="none" />
  </g>
</svg>