<?xml version="1.0" encoding="utf-8"?>
<svg width="512px" height="512px" viewBox="0 0 512 512" version="1.1" xmlns:xlink="http://www.w3.org/1999/xlink" xmlns="http://www.w3.org/2000/svg">
  <g id="Group">
    <g id="Group">
      <path d="M256 0L256 0Q262.284 0 268.561 0.308363Q274.838 0.616726 281.092 1.23271Q287.347 1.84869 293.563 2.77081Q299.779 3.69293 305.943 4.91897Q312.107 6.145 318.203 7.672Q324.299 9.19899 330.313 11.0233Q336.327 12.8476 342.244 14.9647Q348.161 17.0819 353.967 19.4868Q359.773 21.8918 365.454 24.5787Q371.135 27.2657 376.678 30.2282Q382.22 33.1906 387.61 36.4215Q393.001 39.6523 398.226 43.1438Q403.451 46.6352 408.499 50.3789Q413.547 54.1225 418.405 58.1093Q423.263 62.0961 427.919 66.3165Q432.576 70.5369 437.019 74.9807Q441.463 79.4244 445.683 84.0809Q449.904 88.7374 453.891 93.5953Q457.877 98.4533 461.621 103.501Q465.365 108.549 468.856 113.774Q472.348 118.999 475.578 124.39Q478.809 129.78 481.772 135.322Q484.734 140.865 487.421 146.546Q490.108 152.227 492.513 158.033Q494.918 163.839 497.035 169.756Q499.152 175.673 500.977 181.687Q502.801 187.701 504.328 193.797Q505.855 199.893 507.081 206.057Q508.307 212.221 509.229 218.437Q510.151 224.653 510.767 230.908Q511.383 237.162 511.692 243.439Q512 249.716 512 256L512 256Q512 262.284 511.692 268.561Q511.383 274.838 510.767 281.092Q510.151 287.347 509.229 293.563Q508.307 299.779 507.081 305.943Q505.855 312.107 504.328 318.203Q502.801 324.299 500.977 330.313Q499.152 336.327 497.035 342.244Q494.918 348.161 492.513 353.967Q490.108 359.773 487.421 365.454Q484.734 371.135 481.772 376.678Q478.809 382.22 475.578 387.61Q472.348 393.001 468.856 398.226Q465.365 403.451 461.621 408.499Q457.877 413.547 453.891 418.405Q449.904 423.263 445.683 427.919Q441.463 432.576 437.019 437.019Q432.576 441.463 427.919 445.683Q423.263 449.904 418.405 453.891Q413.547 457.877 408.499 461.621Q403.451 465.365 398.226 468.856Q393.001 472.348 387.61 475.578Q382.22 478.809 376.678 481.772Q371.135 484.734 365.454 487.421Q359.773 490.108 353.967 492.513Q348.161 494.918 342.244 497.035Q336.327 499.152 330.313 500.977Q324.299 502.801 318.203 504.328Q312.107 505.855 305.943 507.081Q299.779 508.307 293.563 509.229Q287.347 510.151 281.092 510.767Q274.838 511.383 268.561 511.692Q262.284 512 256 512L256 512Q249.716 512 243.439 511.692Q237.162 511.383 230.908 510.767Q224.653 510.151 218.437 509.229Q212.221 508.307 206.057 507.081Q199.893 505.855 193.797 504.328Q187.701 502.801 181.687 500.977Q175.673 499.152 169.756 497.035Q163.839 494.918 158.033 492.513Q152.227 490.108 146.546 487.421Q140.865 484.734 135.322 481.772Q129.78 478.809 124.39 475.578Q118.999 472.348 113.774 468.856Q108.549 465.365 103.501 461.621Q98.4533 457.877 93.5953 453.891Q88.7374 449.904 84.0809 445.683Q79.4244 441.463 74.9807 437.019Q70.5369 432.576 66.3165 427.919Q62.0961 423.263 58.1093 418.405Q54.1225 413.547 50.3789 408.499Q46.6352 403.451 43.1438 398.226Q39.6523 393.001 36.4215 387.61Q33.1906 382.22 30.2282 376.678Q27.2657 371.135 24.5787 365.454Q21.8918 359.773 19.4868 353.967Q17.0819 348.161 14.9647 342.244Q12.8476 336.327 11.0233 330.313Q9.19899 324.299 7.672 318.203Q6.145 312.107 4.91897 305.943Q3.69293 299.779 2.77081 293.563Q1.84869 287.347 1.23271 281.092Q0.616726 274.838 0.308363 268.561Q0 262.284 0 256L0 256Q0 249.716 0.308363 243.439Q0.616726 237.162 1.23271 230.908Q1.84869 224.653 2.77081 218.437Q3.69293 212.221 4.91897 206.057Q6.145 199.893 7.672 193.797Q9.19899 187.701 11.0233 181.687Q12.8476 175.673 14.9647 169.756Q17.0819 163.839 19.4868 158.033Q21.8918 152.227 24.5787 146.546Q27.2657 140.865 30.2282 135.322Q33.1906 129.78 36.4215 124.39Q39.6523 118.999 43.1438 113.774Q46.6352 108.549 50.3789 103.501Q54.1225 98.4533 58.1093 93.5953Q62.0961 88.7374 66.3165 84.0809Q70.5369 79.4244 74.9807 74.9807Q79.4244 70.5369 84.0809 66.3165Q88.7374 62.0961 93.5953 58.1093Q98.4533 54.1225 103.501 50.3789Q108.549 46.6352 113.774 43.1438Q118.999 39.6523 124.39 36.4215Q129.78 33.1906 135.322 30.2282Q140.865 27.2657 146.546 24.5787Q152.227 21.8918 158.033 19.4868Q163.839 17.0819 169.756 14.9647Q175.673 12.8476 181.687 11.0233Q187.701 9.19899 193.797 7.672Q199.893 6.145 206.057 4.91897Q212.221 3.69293 218.437 2.77081Q224.653 1.84869 230.908 1.23271Q237.162 0.616726 243.439 0.308363Q249.716 0 256 0L256 0Z" id="Mask-2" fill="#423B42" fill-rule="evenodd" stroke="none" />
      <path d="M255.047 19.9222L254.961 19.9222Q260.733 19.9222 266.498 20.2054Q272.263 20.4886 278.007 21.0544Q283.751 21.6201 289.461 22.4671Q295.17 23.314 300.831 24.44Q306.492 25.5661 312.091 26.9686Q317.69 28.3711 323.214 30.0466Q328.737 31.7221 334.172 33.6666Q339.606 35.6112 344.939 37.82Q350.272 40.0288 355.489 42.4967Q360.707 44.9645 365.798 47.6854Q370.888 50.4063 375.839 53.3737Q380.79 56.3411 385.589 59.5479Q390.388 62.7546 395.024 66.193Q399.66 69.6314 404.122 73.2931Q408.584 76.9548 412.861 80.831Q417.138 84.7073 421.219 88.7887Q425.3 92.8701 429.177 97.1469Q433.053 101.424 436.715 105.885Q440.376 110.347 443.815 114.983Q447.253 119.619 450.46 124.419Q453.667 129.218 456.634 134.169Q459.601 139.12 462.322 144.21Q465.043 149.3 467.511 154.518Q469.979 159.736 472.188 165.069Q474.397 170.401 476.341 175.836Q478.286 181.271 479.961 186.794Q481.637 192.317 483.039 197.916Q484.442 203.515 485.568 209.177Q486.694 214.838 487.541 220.547Q488.388 226.257 488.953 232.001Q489.519 237.745 489.802 243.51Q490.086 249.275 490.086 255.047L490.086 254.961Q490.086 260.733 489.802 266.498Q489.519 272.263 488.953 278.007Q488.388 283.751 487.541 289.461Q486.694 295.17 485.568 300.831Q484.442 306.492 483.039 312.091Q481.637 317.69 479.961 323.214Q478.286 328.737 476.341 334.172Q474.397 339.606 472.188 344.939Q469.979 350.272 467.511 355.489Q465.043 360.707 462.322 365.798Q459.601 370.888 456.634 375.839Q453.667 380.79 450.46 385.589Q447.253 390.388 443.815 395.024Q440.376 399.66 436.715 404.122Q433.053 408.584 429.177 412.861Q425.3 417.138 421.219 421.219Q417.138 425.3 412.861 429.177Q408.584 433.053 404.122 436.715Q399.66 440.376 395.024 443.815Q390.388 447.253 385.589 450.46Q380.79 453.667 375.839 456.634Q370.888 459.601 365.798 462.322Q360.707 465.043 355.489 467.511Q350.272 469.979 344.939 472.188Q339.606 474.397 334.172 476.341Q328.737 478.286 323.214 479.961Q317.69 481.637 312.091 483.039Q306.492 484.442 300.831 485.568Q295.17 486.694 289.461 487.541Q283.751 488.388 278.007 488.953Q272.263 489.519 266.498 489.802Q260.733 490.086 254.961 490.086L255.047 490.086Q249.275 490.086 243.51 489.802Q237.745 489.519 232.001 488.953Q226.257 488.388 220.547 487.541Q214.838 486.694 209.177 485.568Q203.515 484.442 197.916 483.039Q192.317 481.637 186.794 479.961Q181.271 478.286 175.836 476.341Q170.401 474.397 165.069 472.188Q159.736 469.979 154.518 467.511Q149.3 465.043 144.21 462.322Q139.12 459.601 134.169 456.634Q129.218 453.667 124.419 450.46Q119.619 447.253 114.983 443.815Q110.347 440.376 105.885 436.715Q101.424 433.053 97.1469 429.177Q92.8701 425.3 88.7887 421.219Q84.7073 417.138 80.831 412.861Q76.9548 408.584 73.2931 404.122Q69.6314 399.66 66.193 395.024Q62.7546 390.388 59.5479 385.589Q56.3411 380.79 53.3737 375.839Q50.4063 370.888 47.6854 365.798Q44.9645 360.707 42.4967 355.489Q40.0288 350.272 37.82 344.939Q35.6112 339.606 33.6666 334.172Q31.7221 328.737 30.0466 323.214Q28.3711 317.69 26.9686 312.091Q25.5661 306.492 24.44 300.831Q23.314 295.17 22.4671 289.461Q21.6201 283.751 21.0544 278.007Q20.4886 272.263 20.2054 266.498Q19.9222 260.733 19.9222 254.961L19.9222 255.047Q19.9222 249.275 20.2054 243.51Q20.4886 237.745 21.0544 232.001Q21.6201 226.257 22.467 220.547Q23.314 214.838 24.44 209.177Q25.5661 203.515 26.9686 197.916Q28.3711 192.317 30.0466 186.794Q31.7221 181.271 33.6666 175.836Q35.6112 170.401 37.82 165.069Q40.0288 159.736 42.4967 154.518Q44.9645 149.3 47.6854 144.21Q50.4063 139.12 53.3737 134.169Q56.3411 129.218 59.5479 124.419Q62.7546 119.619 66.193 114.983Q69.6314 110.347 73.2931 105.885Q76.9548 101.424 80.831 97.1469Q84.7073 92.8701 88.7887 88.7887Q92.8701 84.7073 97.1469 80.831Q101.424 76.9548 105.885 73.2931Q110.347 69.6314 114.983 66.193Q119.619 62.7546 124.419 59.5479Q129.218 56.3411 134.169 53.3737Q139.12 50.4063 144.21 47.6854Q149.3 44.9645 154.518 42.4967Q159.736 40.0288 165.069 37.82Q170.401 35.6112 175.836 33.6666Q181.271 31.7221 186.794 30.0466Q192.317 28.3711 197.916 26.9686Q203.515 25.5661 209.177 24.44Q214.838 23.314 220.547 22.4671Q226.257 21.6201 232.001 21.0544Q237.745 20.4886 243.51 20.2054Q249.275 19.9222 255.047 19.9222L255.047 19.9222Z" id="Mask-3" fill="#2A2A2A" fill-rule="evenodd" stroke="none" />
      <path d="M24.044 298.833C34.5715 354.308 61.5803 400.052 105.07 436.066C148.561 472.079 198.538 490.086 255.004 490.086C311.469 490.086 361.447 472.079 404.937 436.066C448.428 400.052 475.436 354.308 485.964 298.833C485.964 298.833 431.411 357.603 352.255 339.673C273.098 321.743 281.818 268.113 169.339 227.113C56.8587 186.113 24.044 298.833 24.044 298.833L24.044 298.833Z" id="Vector" fill="#FF00FF" fill-rule="evenodd" stroke="none" />
    </g>
  </g>
</svg>